<?xml version="1.0" encoding="UTF-8"?>
<svg id="Capa_1" xmlns="http://www.w3.org/2000/svg" viewBox="0 0 1200 1200">
  <defs>
    <style>
      .cls-1 {
        fill: #f2f068;
      }

      .cls-2 {
        fill: #fff;
      }

      .cls-3 {
        fill: #f26968;
      }
    </style>
  </defs>
  <rect class="cls-3" x="0" width="1200" height="1200"/>
  <g>
    <path class="cls-1" d="M484.58,786.83c1.88-14.96,7.02-28.92,15.42-41.85,8.4-12.95,18.51-23.61,30.32-31.97,11.84-8.35,23.69-12.53,35.54-12.53,7.47,0,15.7,3.17,24.72,9.52,9.04,6.33,17.75,14.38,26.15,24.18,8.43,9.78,15.27,19.71,20.55,29.8,5.3,10.07,7.95,18.55,7.95,25.46-2.5,12.08-8.56,23.44-18.2,34.1-9.64,10.66-21.32,19.16-35.02,25.5-13.71,6.33-27.72,9.48-42.05,9.48-23.03,0-39.69-6.76-49.96-20.28-10.29-13.54-15.42-30.68-15.42-51.4Z"/>
    <g>
      <path class="cls-2" d="M471.08,951.35c-24.91,0-49.82-.13-74.72-.4-24.92-.29-49.82-.44-74.72-.44-19.29,0-33.45-3.45-42.49-10.36-9.04-6.91-14.66-14.96-16.86-24.18-2.17-9.21-3.26-16.69-3.26-22.45.63-40.32,1.1-78.6,1.39-114.86.31-36.27.48-73.11.48-110.52v-120.92c-5.59-18.41-14.47-31.94-26.63-40.56-12.14-8.64-24.74-12.97-37.8-12.97-13.71,0-26.78,4.9-39.23,14.7-12.46,9.78-21.18,24.17-26.15,43.17,0,50.07-.33,96.41-.96,139.03-.61,42.6-1.08,85.34-1.39,128.23-.33,42.87-.48,89.35-.48,139.44-3.74,12.67-5.6,24.48-5.6,35.42,0,21.88,7.01,38.14,21.03,48.79,14.01,10.63,32.54,17.54,55.56,20.72,23.05,3.16,47.33,5.32,72.85,6.47,41.12,1.72,82.24,2.57,123.34,2.57,11.82,0,23.63-.13,35.45-.4,11.84-.29,23.69-.44,35.54-.44,20.53-4.6,36.1-12.66,46.7-24.18,10.6-11.51,15.9-23.59,15.9-36.26s-4.68-23.75-14.03-34.98c-9.36-11.21-24-19.42-43.92-24.62Z"/>
      <g>
        <path class="cls-2" d="M400.13,716.13c-10.28,0-20.37-2.51-29.99-7.47-10.15-5.24-15.3-13.05-15.3-23.23,0-4.26.68-8.54,2.03-12.73,5.95-17.3,9.06-35.51,9.26-54.16.23-18.98,1.67-37.75,4.28-55.79l.03-.18c.4-1.84.71-3.84.91-5.96.22-2.18.34-4.21.34-6.07,0-8.39-2.21-14.5-6.58-18.17-4.51-3.8-12.81-5.72-24.68-5.72h-.19c-11.28-.85-21.68-5.17-30.91-12.87-9.42-7.87-14.19-15.88-14.19-23.81,0-3.77,1.95-8.45,5.95-14.3,4-5.89,9.4-9.77,16.02-11.53,17.61-5.42,31.57-12.89,41.41-22.17,9.84-9.27,17.16-19.95,21.76-31.74,4.64-11.95,7.75-24.85,9.23-38.36,1.5-13.54,2.92-27.55,4.21-41.64,2.13-23.88,4.2-48.47,6.17-73.1,1.91-24.04,4.2-48.68,6.83-73.24,4.01-38.89,22.1-58.62,53.75-58.62,20.24,0,38.69,5.18,54.82,15.41,16.04,10.15,28.87,23.36,38.14,39.24,9.28,15.9,13.98,32.86,13.98,50.42v5.98c0,2.09-.22,4.19-.65,6.25-.05,15.2-4.39,28.26-12.89,38.81-8.57,10.59-21.05,17.64-37.11,20.96l-.19.03c-14.6,1.86-23.55,6.21-26.63,12.94-3.28,7.23-4.94,15.96-4.94,25.95,0,12.85-1.21,25.82-3.61,38.53-2.34,12.36-3.52,22.59-3.52,30.42,0,6.19,2.65,12.62,7.88,19.11,5.56,6.92,11.08,13.21,16.4,18.7,5.94,6.15,8.83,11.44,8.83,16.16,0,7.99-7.51,15.01-22.95,21.46-11.47,4.94-19.23,11.42-23.05,19.23-3.96,8.06-6.39,17.23-7.23,27.26-.86,18.27-2.4,37.3-4.57,56.46-2.12,18.92-3.2,38.39-3.2,57.87,0,9.44-2.03,19.61-6.03,30.24-3.99,10.68-9.62,19.95-16.72,27.53-7.39,7.88-16.51,11.88-27.11,11.88Z"/>
        <path class="cls-2" d="M460.47,127.77c19.86,0,37.69,5.01,53.48,15.02,15.78,9.99,28.22,22.79,37.32,38.39,9.09,15.58,13.64,31.97,13.64,49.16v5.98c0,2.01-.22,4.01-.65,5.98,0,14.81-4.12,27.31-12.34,37.51-8.23,10.18-20.11,16.87-35.67,20.08-15.59,1.99-25.11,6.78-28.59,14.38-3.45,7.61-5.17,16.61-5.17,26.99,0,12.8-1.19,25.49-3.56,38.07-2.38,12.59-3.56,22.88-3.56,30.88,0,6.81,2.8,13.69,8.43,20.68,5.62,6.99,11.13,13.28,16.55,18.88,5.41,5.6,8.12,10.4,8.12,14.42,0,6.81-7.15,13.19-21.42,19.16-12.11,5.22-20.22,12.04-24.33,20.44-4.12,8.38-6.6,17.77-7.47,28.15-.87,18.39-2.39,37.19-4.56,56.38-2.15,19.17-3.21,38.55-3.21,58.15,0,9.18-1.96,18.97-5.86,29.36-3.89,10.41-9.29,19.32-16.2,26.71-6.93,7.39-15.36,11.08-25.28,11.08s-19.55-2.4-28.85-7.19c-9.3-4.8-13.95-11.8-13.95-21,0-4,.63-7.98,1.91-11.97,6.05-17.59,9.18-35.89,9.38-54.9.23-18.99,1.65-37.47,4.26-55.46.43-1.98.75-4.07.96-6.27.23-2.22.35-4.32.35-6.31,0-9.21-2.5-15.9-7.47-20.08-4.99-4.2-13.75-6.31-26.28-6.31-10.81-.8-20.64-4.9-29.5-12.29-8.86-7.41-13.29-14.71-13.29-21.89,0-3.21,1.84-7.51,5.52-12.89,3.67-5.4,8.54-8.92,14.6-10.52,18.16-5.59,32.32-13.18,42.49-22.77,10.17-9.58,17.62-20.46,22.37-32.65,4.75-12.21,7.87-25.2,9.38-39,1.53-13.78,2.93-27.68,4.21-41.69,2.17-24.39,4.22-48.76,6.17-73.13,1.93-24.39,4.21-48.77,6.82-73.17,3.88-37.59,20.96-56.38,51.26-56.38M460.47,122.77c-16.55,0-29.75,5.29-39.24,15.73-9.24,10.16-14.95,25.35-17,45.14-2.63,24.58-4.93,49.24-6.83,73.29-1.97,24.63-4.04,49.22-6.16,73.08-1.29,14.08-2.7,28.07-4.2,41.58-1.46,13.3-4.51,25.99-9.07,37.74-4.46,11.44-11.58,21.81-21.14,30.82-9.54,9-23.15,16.27-40.44,21.6-7.18,1.93-13.02,6.14-17.35,12.52-4.29,6.27-6.38,11.41-6.38,15.7,0,8.7,5.08,17.35,15.09,25.72,9.64,8.04,20.52,12.56,32.33,13.44h.37c14.03.01,20.28,2.8,23.06,5.14,3.78,3.17,5.69,8.64,5.69,16.26,0,1.77-.11,3.72-.32,5.79-.19,2.06-.48,3.96-.87,5.7l-.06.36c-2.63,18.15-4.08,37.03-4.31,56.12-.2,18.39-3.27,36.33-9.11,53.33l-.03.1c-1.43,4.44-2.15,8.98-2.15,13.5,0,11.02,5.76,19.82,16.65,25.45,9.98,5.14,20.45,7.75,31.14,7.75,11.32,0,21.05-4.26,28.93-12.66,7.33-7.83,13.13-17.38,17.24-28.38,4.1-10.9,6.18-21.37,6.18-31.11,0-19.39,1.07-38.77,3.18-57.59,2.17-19.17,3.71-38.22,4.58-56.61.82-9.69,3.17-18.53,6.97-26.28,3.55-7.27,10.88-13.33,21.8-18.04,16.46-6.88,24.46-14.65,24.46-23.76,0-5.4-3.12-11.25-9.53-17.89-5.28-5.45-10.74-11.68-16.25-18.53-4.86-6.04-7.33-11.94-7.33-17.55,0-7.67,1.17-17.75,3.48-29.95,2.42-12.87,3.65-25.99,3.65-39,0-9.63,1.59-18.02,4.72-24.92,3.35-7.32,15.26-10.28,24.67-11.48l.38-.06c16.64-3.44,29.61-10.78,38.54-21.83,8.83-10.95,13.35-24.45,13.45-40.13.43-2.15.65-4.33.65-6.51v-5.98c0-18-4.82-35.39-14.32-51.68-9.47-16.24-22.58-29.73-38.96-40.1-16.53-10.48-35.43-15.8-56.15-15.8h0Z"/>
      </g>
      <g>
        <path class="cls-2" d="M1035.8,570.43c-9.62,0-19.64-4.22-29.78-12.53-9.84-8.09-19.68-18.2-29.25-30.04-9.5-11.81-18.69-23.64-27.3-35.18-8.54-11.45-16.46-21.29-23.54-29.23-6.51-7.31-12.25-11.17-16.6-11.17-4.97,0-12.07,3.94-21.09,11.72-9.37,8.07-19.89,18.1-31.29,29.81-11,11.31-22.25,22.72-33.43,33.92-7.35,7.62-15.81,11.5-25.1,11.5-6.57,0-14.72-2.65-24.9-8.09-9.68-5.17-20.21-11.57-31.32-19-11.16-7.47-22.01-15.06-32.23-22.55-10.37-7.6-19.11-13.99-26.24-19.19-9.26-6.75-11.51-7.27-11.86-7.31-4.61,0-8.13,2.41-10.73,7.38-2.9,5.55-5.45,12.54-7.57,20.75-2.16,8.44-4.91,17-8.17,25.45-3.36,8.68-8.14,16.13-14.21,22.16-6.32,6.24-15.09,9.4-26.09,9.4-13.58,0-24.2-3.56-31.57-10.57-7.19-6.84-12.54-15.34-15.89-25.27-3.29-9.75-5.51-19.51-6.59-29.03-1.06-9.28-2.24-16.75-3.51-22.2l-.05-.85c2.2-19.05,6.67-34.7,13.29-46.52,6.86-12.26,20.15-19.74,39.49-22.22,8.22-.77,15.32-3.34,21.17-7.65,6.28-4.6,12.96-8.96,19.89-12.96,8.67-6.8,16.07-11.79,21.98-14.84,6.19-3.17,12.36-4.78,18.35-4.78,5.55,0,11.49,1.61,17.65,4.77,5.93,3.05,13.15,7.66,21.44,13.7,7.06,4.9,13.24,10.72,18.32,17.28,4.81,6.2,10.24,11.72,16.13,16.4,5.56,4.41,12.9,6.65,21.82,6.65,7.65,0,14.27-1.87,19.66-5.55,5.67-3.9,11.1-8.63,16.13-14.05,5.27-5.69,10.85-10.64,16.59-14.72,17.8-12.85,34.78-22.43,50.46-28.49,15.8-6.08,30.08-9.16,42.43-9.16,18.28,0,34.56,6.38,48.38,18.96,13.56,12.33,27.06,31.21,40.11,56.11,7.22,13.76,16.27,26.71,26.88,38.48,10.83,12,20.6,23.76,29.03,34.95,8.72,11.59,13.15,23.79,13.15,36.28,0,6.76-1.95,13.91-5.8,21.24-3.83,7.27-9.09,13.51-15.63,18.53-6.67,5.11-14.27,7.71-22.59,7.71Z"/>
        <path class="cls-2" d="M922.29,340.66c17.72,0,33.29,6.1,46.7,18.31,13.4,12.19,26.6,30.66,39.58,55.42,7.35,14.01,16.43,27.01,27.24,39,10.83,12,20.46,23.59,28.89,34.78,8.43,11.19,12.64,22.79,12.64,34.78,0,6.41-1.85,13.09-5.52,20.08-3.68,6.99-8.67,12.89-14.94,17.71-6.26,4.8-13.28,7.19-21.07,7.19-9.07,0-18.46-3.99-28.19-11.97-9.73-8-19.36-17.89-28.89-29.68-9.5-11.81-18.58-23.5-27.24-35.1-8.63-11.59-16.53-21.39-23.68-29.4-7.12-8-13.28-12.01-18.46-12.01-5.63,0-13.2,4.12-22.72,12.33-9.5,8.19-19.98,18.18-31.45,29.96-11.47,11.79-22.61,23.08-33.41,33.9-6.93,7.18-14.71,10.76-23.33,10.76-6.08,0-13.99-2.59-23.72-7.79-9.71-5.19-20.07-11.49-31.11-18.88-11.03-7.39-21.75-14.88-32.15-22.49-10.37-7.6-19.12-14-26.24-19.2-7.12-5.19-11.56-7.79-13.29-7.79-5.63,0-9.95,2.91-12.99,8.71-3.02,5.78-5.6,12.88-7.78,21.28-2.15,8.38-4.84,16.78-8.08,25.18-3.25,8.38-7.8,15.48-13.64,21.28-5.85,5.78-13.97,8.67-24.33,8.67-12.98,0-22.93-3.29-29.85-9.88-6.93-6.59-12.01-14.67-15.25-24.26-3.25-9.61-5.41-19.12-6.47-28.51-1.08-9.4-2.26-16.89-3.56-22.49,2.17-18.79,6.49-33.99,12.99-45.58,6.48-11.59,19.03-18.57,37.62-20.96,8.62-.8,16.07-3.5,22.33-8.11,6.28-4.6,12.88-8.9,19.81-12.89,8.66-6.8,15.9-11.7,21.72-14.7,5.84-2.99,11.58-4.5,17.2-4.5,5.18,0,10.69,1.51,16.51,4.5,5.84,3,12.88,7.5,21.11,13.49,6.92,4.8,12.86,10.39,17.81,16.79,4.97,6.41,10.49,12.01,16.55,16.83,6.05,4.8,13.84,7.19,23.37,7.19,8.19,0,15.22-1.99,21.07-5.98,5.84-4.02,11.36-8.82,16.55-14.42,5.18-5.59,10.58-10.38,16.2-14.38,17.72-12.79,34.36-22.19,49.92-28.19,15.57-5.99,29.42-9,41.53-9M922.29,335.66c-12.66,0-27.24,3.14-43.33,9.33-15.88,6.13-33.06,15.82-51.05,28.8-5.85,4.15-11.56,9.22-16.95,15.03-4.9,5.29-10.19,9.89-15.72,13.69-5.03,3.43-11,5.1-18.24,5.1-8.46,0-15.09-2-20.27-6.11-5.73-4.56-11.02-9.93-15.71-15.98-5.22-6.74-11.56-12.73-18.86-17.8-8.38-6.1-15.69-10.77-21.73-13.87-6.52-3.35-12.84-5.05-18.79-5.05-6.39,0-12.94,1.7-19.48,5.05-6.03,3.11-13.51,8.15-22.25,15-6.94,4.02-13.66,8.39-19.96,13.01-5.49,4.04-12.16,6.45-19.84,7.17l-.17.02c-20.17,2.59-34.08,10.49-41.35,23.48-6.78,12.1-11.35,28.07-13.59,47.45l.1,1.71c1.25,5.37,2.41,12.74,3.46,21.92,1.1,9.69,3.35,19.63,6.7,29.55,3.48,10.31,9.05,19.16,16.54,26.28,7.84,7.47,19.05,11.26,33.29,11.26,11.68,0,21.05-3.4,27.84-10.12,6.33-6.29,11.3-14.03,14.79-23.04,3.29-8.55,6.07-17.21,8.26-25.74,2.07-8.02,4.55-14.82,7.37-20.21,2.67-5.1,5.75-5.96,8.21-6.02.72.25,3.3,1.44,10.7,6.83,7.12,5.2,15.86,11.59,26.23,19.19,10.26,7.51,21.13,15.12,32.32,22.61,11.17,7.48,21.78,13.92,31.53,19.13,10.55,5.64,19.08,8.38,26.08,8.38,9.98,0,19.03-4.12,26.9-12.26,11.15-11.17,22.4-22.58,33.42-33.91,11.35-11.66,21.83-21.63,31.13-29.66,11.22-9.67,17-11.12,19.46-11.12,2.06,0,6.72,1.34,14.73,10.33,7.04,7.89,14.91,17.67,23.4,29.06,8.62,11.55,17.82,23.41,27.35,35.25,9.68,11.98,19.64,22.21,29.61,30.41,10.6,8.7,21.16,13.11,31.37,13.11,8.89,0,17-2.77,24.11-8.22,6.83-5.24,12.32-11.75,16.32-19.35,4.04-7.7,6.09-15.24,6.09-22.41,0-13.04-4.59-25.76-13.65-37.79-8.48-11.25-18.29-23.06-29.17-35.12-10.47-11.62-19.4-24.39-26.52-37.97-13.19-25.15-26.86-44.26-40.64-56.8-14.3-13.01-31.14-19.61-50.07-19.61h0Z"/>
      </g>
    </g>
  </g>
</svg>