<?xml version="1.0" encoding="UTF-8"?>
<svg id="Capa_2" xmlns="http://www.w3.org/2000/svg" viewBox="0 0 1024.91 583.29">
  <defs>
    <style>
      .cls-1 {
        fill: #f26968;
      }

      .cls-2 {
        fill: #333;
      }
    </style>
  </defs>
  <g id="Capa_1-2" data-name="Capa_1">
    <path class="cls-1" d="M215.51,314.59c.95-8.16,3.54-15.78,7.78-22.83,4.23-7.07,9.33-12.88,15.3-17.44,5.97-4.56,11.95-6.84,17.92-6.84,3.77,0,7.92,1.73,12.47,5.19,4.56,3.45,8.95,7.84,13.19,13.19,4.25,5.34,7.7,10.75,10.36,16.26,2.67,5.49,4.01,10.12,4.01,13.89-1.26,6.59-4.32,12.79-9.18,18.6-4.86,5.82-10.75,10.45-17.66,13.91-6.91,3.45-13.98,5.17-21.21,5.17-11.61,0-20.02-3.69-25.2-11.07-5.19-7.39-7.78-16.74-7.78-28.05Z"/>
    <g>
      <g>
        <path class="cls-2" d="M142.59,522.83c-20.71,0-41.68-.47-62.32-1.41-12.89-.62-25.33-1.82-37-3.55-12.02-1.8-21.86-5.78-29.25-11.85-7.64-6.28-11.52-15.89-11.52-28.56,0-6.07.95-12.68,2.83-19.66,0-27.61.08-53.1.24-75.77.16-22.97.39-46.52.7-69.98.32-23.39.48-48.9.48-75.83l.07-.59c2.62-10.84,7.33-19.21,14-24.87,6.71-5.72,13.91-8.61,21.41-8.61s14.04,2.56,20.59,7.6c6.54,5.01,11.36,12.9,14.31,23.44l.09.68v65.98c0,20.1-.08,40.4-.24,60.33-.15,19.41-.38,40.5-.7,62.69,0,2.91.53,6.85,1.59,11.68.99,4.5,3.49,8.36,7.65,11.8,4.08,3.37,10.75,5.08,19.84,5.08,12.39,0,25.08.08,37.72.24,12.35.15,25.02.22,37.66.22l.68.09c10.53,2.97,18.42,7.79,23.45,14.31,5.04,6.55,7.6,13.48,7.6,20.61,0,7.49-2.9,14.69-8.62,21.41-5.67,6.67-14.04,11.38-24.87,14l-.59.07c-5.87,0-11.88.08-17.86.24-5.89.15-11.93.22-17.95.22Z"/>
        <path class="cls-2" d="M42.23,204.66c6.58,0,12.94,2.36,19.06,7.08,6.14,4.71,10.61,12.08,13.43,22.13v65.98c0,20.41-.08,40.51-.24,60.3-.15,19.78-.38,40.67-.7,62.67,0,3.14.55,7.23,1.64,12.25,1.11,5.03,3.94,9.42,8.5,13.19,4.56,3.77,11.7,5.65,21.43,5.65,12.56,0,25.12.08,37.69.24,12.56.15,25.12.22,37.69.22,10.05,2.84,17.43,7.31,22.15,13.43,4.72,6.12,7.08,12.48,7.08,19.09s-2.67,13.51-8.02,19.79c-5.35,6.28-13.2,10.68-23.56,13.19-5.98,0-11.95.08-17.92.24-5.96.15-11.92.22-17.88.22-20.73,0-41.47-.47-62.21-1.4-12.87-.62-25.12-1.8-36.75-3.53-11.61-1.74-20.96-5.51-28.03-11.31-7.07-5.81-10.61-14.69-10.61-26.62,0-5.97.94-12.41,2.83-19.33,0-27.33.08-52.69.24-76.08.16-23.4.39-46.72.7-69.97.32-23.26.48-48.54.48-75.86,2.51-10.37,6.91-18.22,13.19-23.56,6.28-5.35,12.87-8.02,19.79-8.02M42.23,199.66c-8.1,0-15.85,3.1-23.03,9.21-7.07,6.01-12.06,14.82-14.81,26.19l-.14,1.18c0,26.91-.16,52.41-.48,75.79-.31,23.44-.55,46.99-.7,70-.16,22.59-.24,47.97-.24,75.46-1.88,7.07-2.83,13.79-2.83,19.99,0,13.45,4.18,23.71,12.43,30.49,7.74,6.36,17.99,10.52,30.46,12.39,11.76,1.75,24.28,2.95,37.25,3.58,20.7.93,41.7,1.41,62.45,1.41,6.05,0,12.11-.07,18-.22,5.97-.16,11.96-.24,17.8-.24l1.18-.14c11.36-2.75,20.17-7.73,26.19-14.81,6.11-7.18,9.21-14.93,9.21-23.03s-2.73-15.14-8.12-22.14c-5.37-6.96-13.7-12.07-24.76-15.19l-1.36-.19c-12.65,0-25.31-.07-37.63-.22-12.67-.16-25.37-.24-37.75-.24-8.49,0-14.63-1.52-18.24-4.51-3.71-3.07-5.94-6.48-6.81-10.41-1.01-4.62-1.52-8.37-1.53-11.14.32-22.18.56-43.26.7-62.67.16-19.95.24-40.25.24-60.34v-65.98l-.19-1.35c-3.11-11.07-8.22-19.39-15.2-24.75-6.99-5.38-14.43-8.11-22.11-8.11h0Z"/>
      </g>
      <g>
        <path class="cls-2" d="M263.7,534.14c-7.85,0-15.24-3.15-21.97-9.36-6.52-6.03-11.8-13.94-15.7-23.51-3.87-9.53-5.84-19.44-5.84-29.45,0-13.11,3.64-22.07,10.83-26.61,6.82-4.33,15.12-6.52,24.65-6.52h.2c8.4.68,15.97,4.16,22.49,10.35,6.33,6.02,11.43,13.34,15.16,21.77,3.75,8.45,5.65,17.04,5.65,25.51s-3.44,16.86-10.23,25.14c-6.91,8.42-15.41,12.68-25.25,12.68Z"/>
        <path class="cls-2" d="M255.68,441.19c7.86.63,14.85,3.85,20.97,9.66,6.12,5.82,10.98,12.81,14.59,20.97,3.62,8.17,5.43,16.34,5.43,24.5s-3.22,15.7-9.66,23.56c-6.44,7.84-14.22,11.77-23.32,11.77-7.23,0-13.99-2.9-20.27-8.7-6.28-5.81-11.31-13.35-15.08-22.61-3.77-9.27-5.65-18.78-5.65-28.51,0-12.25,3.22-20.42,9.66-24.5,6.44-4.09,14.21-6.14,23.32-6.14M255.68,436.19c-10.02,0-18.76,2.33-25.99,6.91-7.95,5.03-11.99,14.69-11.99,28.72,0,10.33,2.03,20.56,6.02,30.39,4.03,9.91,9.52,18.12,16.31,24.4,7.2,6.66,15.16,10.03,23.66,10.03,10.63,0,19.77-4.57,27.18-13.59,7.17-8.74,10.8-17.73,10.8-26.73s-1.97-17.75-5.86-26.53c-3.86-8.73-9.15-16.32-15.72-22.57-6.95-6.6-15.03-10.3-24.02-11.02l-.4-.02h0Z"/>
      </g>
      <g>
        <path class="cls-2" d="M348.38,580.78c-10.22-.98-18.46-4.12-24.49-9.32-6.2-5.34-9.35-12.07-9.35-20.01,0-3.83,1.11-8.15,3.3-12.85,2.07-4.45,4.05-8.8,5.88-12.91,1.73-3.91,2.61-7.3,2.61-10.07,0-3.96-1.49-8.8-4.42-14.37-6.77-13.2-10.19-27.85-10.19-43.57,0-19.85,5.35-38.68,15.9-55.95,10.58-17.32,25.06-30.34,43.02-38.68,3.23-1.61,6.57-2.86,9.87-3.69,3.32-.83,6.7-1.26,10.03-1.26,9.45,0,17.27,3.11,23.22,9.24,5.95,6.11,8.97,13.2,8.97,21.07,0,5.23-1.51,9.93-4.5,13.98-2.78,3.76-6.81,7.79-11.98,11.98-9.59,7.75-16.87,14.4-21.62,19.77-4.42,5-6.67,9.9-6.67,14.58s1.78,9.82,5.3,15.67c3.71,6.19,9.21,14.51,16.33,24.73,4.5,5.17,8.02,10.67,10.45,16.33,2.48,5.79,3.73,11.74,3.73,17.71,0,12.83-3.94,23.7-11.71,32.31-7.6,8.41-16.54,14.8-26.57,19-10,4.2-19.04,6.33-26.87,6.33h-.24Z"/>
        <path class="cls-2" d="M390.53,360.61c8.79,0,15.94,2.83,21.43,8.48,5.51,5.65,8.26,12.1,8.26,19.33,0,4.71-1.34,8.87-4.01,12.49-2.67,3.61-6.52,7.45-11.55,11.53-9.73,7.86-17.04,14.54-21.91,20.05-4.86,5.49-7.3,10.91-7.3,16.24,0,5.03,1.88,10.68,5.65,16.96,3.77,6.28,9.27,14.61,16.5,24.98,4.39,5.03,7.77,10.29,10.12,15.78,2.35,5.49,3.53,11.07,3.53,16.72,0,12.26-3.69,22.47-11.07,30.63-7.38,8.16-15.94,14.29-25.68,18.36-9.73,4.09-18.36,6.14-25.9,6.14-9.75-.94-17.44-3.85-23.1-8.72-5.65-4.86-8.48-10.91-8.48-18.12,0-3.46,1.02-7.4,3.07-11.79,2.04-4.39,4.01-8.71,5.89-12.95,1.88-4.25,2.83-7.94,2.83-11.09,0-4.39-1.57-9.58-4.71-15.54-6.61-12.88-9.9-27.02-9.9-42.4,0-19.47,5.18-37.69,15.54-54.65,10.37-16.97,24.35-29.54,41.94-37.71,3.14-1.56,6.28-2.74,9.42-3.53,3.14-.79,6.28-1.18,9.42-1.18M390.53,355.61c-3.54,0-7.12.45-10.64,1.33-3.45.86-6.93,2.17-10.37,3.87-18.39,8.55-33.21,21.88-44.04,39.61-10.8,17.68-16.27,36.94-16.27,57.26,0,16.12,3.52,31.15,10.46,44.68l.03.05c2.74,5.21,4.14,9.65,4.14,13.21,0,2.42-.81,5.47-2.4,9.06-1.82,4.1-3.79,8.43-5.86,12.87-2.34,5.03-3.53,9.7-3.53,13.9,0,8.71,3.44,16.08,10.22,21.91,6.42,5.54,15.13,8.88,25.88,9.91l.48.02c8.16,0,17.53-2.2,27.84-6.53,10.37-4.34,19.61-10.94,27.45-19.62,8.2-9.08,12.36-20.52,12.36-33.99,0-6.3-1.32-12.59-3.93-18.69-2.52-5.87-6.14-11.55-10.77-16.89-7.06-10.13-12.5-18.36-16.16-24.47-3.28-5.46-4.94-10.3-4.94-14.39s2.03-8.4,6.04-12.92c4.66-5.26,11.83-11.82,21.31-19.48,5.34-4.33,9.52-8.52,12.42-12.44,3.31-4.49,4.99-9.69,4.99-15.47,0-8.54-3.26-16.22-9.68-22.82-6.44-6.63-14.86-9.99-25.01-9.99h0Z"/>
      </g>
      <g>
        <path class="cls-2" d="M577.01,523.32c-8.29,0-16.5-2.5-24.42-7.43-8.29-5.19-12.48-13.67-12.48-25.22,0-5.43.32-10.92.96-16.31.61-5.25.93-10.71.93-16.21,0-10.24-.95-17.41-2.82-21.29-1.6-3.33-5.4-4.94-11.64-4.94-7.01,0-14.84.93-23.27,2.77-8.77,1.91-17.43,2.88-25.73,2.88-7.18,0-14.84-1.47-22.77-4.38-7.99-2.95-14.95-7.34-20.69-13.07-5.96-5.97-8.97-13.31-8.97-21.82,0-11.93,2.86-20.91,8.49-26.7,5.51-5.69,12.61-9.42,21.1-11.07,8.1-1.6,16.96-2.48,26.34-2.63,9.14-.16,17.79-.63,25.72-1.41,7.52-.74,13.76-2.88,18.56-6.37,4.54-3.3,6.75-8.96,6.75-17.28,0-12.67-1.1-25.69-3.27-38.7-2.2-13.27-3.32-26.4-3.32-39.04,0-4.86.57-10.1,1.69-15.58,1.2-5.84,4.06-10.89,8.51-15.01,4.55-4.19,11.46-6.32,20.56-6.32,8.2,0,15.14,2.87,20.64,8.54,5.09,5.26,9.77,10.82,13.9,16.54,8.65,11.86,14.26,24.65,16.67,38.01,2.38,13.09,3.74,26.62,4.05,40.2.31,10.77.93,18.65,1.84,23.38.8,4.1,2.98,6.99,6.68,8.84,4.27,2.13,11.61,4.93,21.8,8.32,7.25,2.21,14.74,5.19,22.22,8.85,7.54,3.68,14.94,8.64,21.99,14.73l.28,3.5c-15.41,18.28-34.3,29.5-56.15,33.37-14.46,2.6-21.49,9.96-21.49,22.5,0,3.63.31,7.38.91,11.15.65,4.07.97,7.93.97,11.46,0,7.4-1.14,15.47-3.39,23.98-2.27,8.6-5.82,16.04-10.57,22.09-5.02,6.42-11.94,9.68-20.57,9.68Z"/>
        <path class="cls-2" d="M557.22,220.68c7.54,0,13.82,2.6,18.85,7.78,5.02,5.19,9.58,10.61,13.67,16.26,8.47,11.61,13.88,23.95,16.24,36.99,2.37,13.03,3.7,26.31,4.01,39.82.32,10.99.95,18.92,1.88,23.8.95,4.86,3.62,8.4,8.02,10.61,4.39,2.19,11.77,5.01,22.13,8.46,7.23,2.21,14.53,5.12,21.91,8.72,7.39,3.61,14.54,8.4,21.45,14.37-15.09,17.9-33.32,28.74-54.67,32.52-15.71,2.82-23.56,11.14-23.56,24.96,0,3.77.31,7.62.94,11.55.62,3.93.94,7.62.94,11.07,0,7.23-1.11,15.01-3.31,23.34-2.19,8.32-5.57,15.38-10.12,21.19-4.55,5.82-10.75,8.72-18.6,8.72s-15.55-2.35-23.1-7.06c-7.54-4.72-11.31-12.41-11.31-23.1,0-5.35.31-10.68.94-16.02.62-5.35.94-10.85.94-16.5,0-10.68-1.02-18.13-3.07-22.37-2.03-4.23-6.66-6.35-13.89-6.35s-15.15.94-23.8,2.83c-8.63,1.88-17.04,2.83-25.2,2.83-6.91,0-14.22-1.41-21.91-4.23-7.69-2.83-14.28-7-19.79-12.49-5.49-5.51-8.24-12.19-8.24-20.05,0-11.31,2.59-19.62,7.78-24.96,5.18-5.35,11.78-8.8,19.79-10.36,8-1.58,16.64-2.44,25.9-2.59,9.27-.16,17.91-.64,25.92-1.42,8-.79,14.6-3.07,19.79-6.84,5.18-3.77,7.78-10.2,7.78-19.31,0-12.88-1.11-25.92-3.31-39.11-2.19-13.19-3.29-26.07-3.29-38.63,0-4.72.55-9.74,1.64-15.08,1.1-5.35,3.68-9.9,7.76-13.67,4.09-3.77,10.38-5.65,18.87-5.65M557.22,215.68c-9.75,0-17.24,2.35-22.26,6.98-4.85,4.48-7.96,9.98-9.27,16.35-1.16,5.64-1.75,11.05-1.75,16.08,0,12.78,1.13,26.05,3.35,39.45,2.15,12.88,3.24,25.77,3.24,38.3,0,7.47-1.87,12.46-5.72,15.26-4.43,3.22-10.27,5.21-17.34,5.9-7.86.77-16.45,1.25-25.52,1.4-9.52.15-18.53,1.05-26.78,2.68-8.99,1.76-16.53,5.73-22.41,11.79-6.1,6.27-9.19,15.84-9.19,28.44,0,9.2,3.26,17.13,9.7,23.58,6,5.99,13.27,10.58,21.6,13.65,8.22,3.01,16.17,4.54,23.64,4.54,8.49,0,17.32-.99,26.27-2.94,8.25-1.8,15.9-2.71,22.73-2.71,5.11,0,8.26,1.18,9.39,3.52,1.18,2.44,2.58,7.92,2.58,20.21,0,5.4-.31,10.76-.91,15.92-.65,5.48-.98,11.07-.98,16.6,0,12.47,4.59,21.67,13.65,27.33,8.32,5.19,16.98,7.82,25.75,7.82,9.44,0,17.02-3.58,22.54-10.64,4.96-6.32,8.66-14.06,11.02-22.99,2.3-8.71,3.47-17,3.47-24.61,0-3.67-.34-7.65-1-11.85-.58-3.64-.88-7.26-.88-10.76,0-7.1,2.02-16.91,19.44-20.04,22.43-3.97,41.81-15.48,57.61-34.22l-.55-7.01c-7.21-6.23-14.79-11.31-22.53-15.08-7.57-3.7-15.17-6.72-22.59-8.99-10.05-3.34-17.26-6.09-21.42-8.17-2.99-1.5-4.69-3.75-5.34-7.09-.88-4.59-1.49-12.33-1.79-22.99-.31-13.68-1.69-27.34-4.09-40.56-2.48-13.73-8.24-26.87-17.12-39.04-4.2-5.8-8.95-11.45-14.12-16.79-5.99-6.17-13.54-9.3-22.44-9.3h0Z"/>
      </g>
      <g>
        <path class="cls-2" d="M688.42,556.78c-1.74,0-3.88-.32-6.52-.96-14.55-1.02-26.17-5.52-34.54-13.39-8.49-7.99-12.8-17.96-12.8-29.63,0-6.89,1.49-14.02,4.44-21.2,8.26-19.39,19.53-36.38,33.51-50.51,14.09-14.26,32.26-23.92,54-28.73,6.2-1.56,12.27-3.22,17.97-4.91,5.4-1.6,10.69-4.81,15.72-9.55,10.18-9.53,20.58-14.35,30.92-14.35,7.83,0,15.13,3,21.7,8.9,6.5,5.84,10.96,14.62,13.27,26.11,1.53,7.66,3.62,14.89,6.23,21.49,2.47,6.23,7.14,11.62,13.88,16,3.95,2.64,7.46,5.72,10.43,9.19,3.22,3.76,4.86,8.19,4.86,13.18,0,8.55-2.74,15.35-8.15,20.22-5.14,4.65-11.37,7.94-18.49,9.77-6.92,1.77-13.38,2.66-19.23,2.66-6.14,0-12.21-.74-18.03-2.2-5.95-1.49-11.81-4.41-17.41-8.68-5.2-4.04-10.07-6.08-14.5-6.08-6.53,0-12.46,4.64-17.61,13.8-4.17,7.36-9.84,14.89-16.85,22.39-7.03,7.49-14.31,13.79-21.64,18.73-7.61,5.14-14.73,7.74-21.16,7.74Z"/>
        <path class="cls-2" d="M791.12,386.05c7.23,0,13.9,2.76,20.03,8.26,6.12,5.49,10.28,13.74,12.49,24.74,1.56,7.84,3.68,15.15,6.35,21.91,2.67,6.75,7.61,12.48,14.84,17.18,3.77,2.51,7.07,5.42,9.9,8.72,2.83,3.3,4.25,7.15,4.25,11.55,0,7.84-2.44,13.97-7.32,18.36-4.86,4.4-10.68,7.47-17.44,9.2-6.75,1.73-12.95,2.59-18.6,2.59-5.96,0-11.77-.71-17.42-2.13-5.65-1.41-11.15-4.16-16.5-8.24-5.65-4.39-10.99-6.6-16.02-6.6-7.54,0-14.13,5.03-19.79,15.08-4.09,7.22-9.59,14.52-16.5,21.91-6.91,7.37-13.98,13.5-21.21,18.36-7.22,4.88-13.81,7.32-19.77,7.32-1.58,0-3.63-.32-6.14-.94-14.13-.95-25.2-5.19-33.22-12.73-8.01-7.54-12.01-16.81-12.01-27.81,0-6.58,1.41-13.33,4.25-20.25,8.16-19.16,19.16-35.73,32.98-49.7,13.82-13.98,31.41-23.33,52.77-28.05,6.28-1.58,12.33-3.23,18.14-4.95,5.81-1.72,11.38-5.09,16.72-10.12,9.74-9.12,19.48-13.67,29.21-13.67M791.12,381.05c-11,0-21.98,5.05-32.63,15.02-4.75,4.48-9.7,7.49-14.72,8.98-5.66,1.68-11.68,3.32-17.87,4.88-22.19,4.92-40.75,14.81-55.17,29.4-14.2,14.36-25.65,31.6-34.02,51.25l-.03.06c-3.07,7.48-4.63,14.93-4.63,22.15,0,12.39,4.57,22.97,13.58,31.45,8.76,8.23,20.83,12.96,35.87,14.05,2.75.66,5.01.98,6.91.98,6.94,0,14.53-2.75,22.56-8.18,7.48-5.03,14.91-11.46,22.06-19.09,7.15-7.65,12.94-15.34,17.2-22.87,4.69-8.33,9.88-12.54,15.44-12.54,3.86,0,8.22,1.87,12.95,5.54,5.91,4.5,12.07,7.57,18.36,9.14,6.01,1.51,12.28,2.27,18.63,2.27s12.73-.92,19.84-2.74c7.53-1.94,14.11-5.41,19.56-10.34,5.95-5.36,8.97-12.79,8.97-22.07,0-5.6-1.84-10.58-5.46-14.8-3.13-3.64-6.81-6.88-10.93-9.63l-.05-.03c-6.29-4.1-10.64-9.09-12.91-14.83-2.55-6.45-4.6-13.54-6.1-21.05-2.42-12.03-7.14-21.28-14.05-27.48-7.04-6.33-14.91-9.54-23.37-9.54h0Z"/>
      </g>
      <g>
        <path class="cls-2" d="M144.95,327.17c-5.42,0-10.72-1.43-15.77-4.24-5.52-3.08-8.32-7.67-8.32-13.64,0-2.42.36-4.86,1.07-7.24,2.98-9.36,4.53-19.19,4.63-29.27.12-10.4.85-20.68,2.17-30.57l.03-.17c.2-.96.34-2.02.44-3.14.11-1.17.17-2.24.17-3.22,0-4.26-.99-7.33-2.95-9.11-2.01-1.83-6.01-2.79-11.58-2.79h-.2c-5.98-.49-11.48-2.96-16.35-7.35-5-4.52-7.53-9.16-7.53-13.8,0-2.26,1.04-5,3.17-8.37,2.17-3.45,5.11-5.74,8.73-6.79,8.71-2.91,15.57-6.88,20.39-11.79,4.85-4.94,8.45-10.63,10.72-16.91,2.31-6.44,3.86-13.4,4.6-20.68.76-7.37,1.47-15.01,2.12-22.71,1.07-13.04,2.12-26.46,3.11-39.88.96-13.12,2.12-26.57,3.45-39.99,2.09-21.91,11.63-33.02,28.34-33.02,10.48,0,20.03,2.9,28.39,8.63,8.25,5.65,14.85,12.99,19.61,21.82,4.76,8.83,7.18,18.26,7.18,28.01v3.26c0,1.17-.11,2.35-.33,3.51-.04,8.48-2.3,15.79-6.72,21.71-4.5,6.02-11.04,10.02-19.45,11.9l-.2.04c-6.89.95-11.08,3.08-12.46,6.34-1.6,3.81-2.41,8.44-2.41,13.75,0,7.07-.62,14.21-1.83,21.2-1.17,6.69-1.76,12.21-1.76,16.42,0,3.15,1.26,6.44,3.76,9.79,2.78,3.75,5.54,7.15,8.21,10.12,3.19,3.57,4.74,6.69,4.74,9.54,0,4.83-4.01,9-12.27,12.73-5.5,2.56-9.21,5.9-11.02,9.9-1.94,4.29-3.14,9.17-3.55,14.53-.43,9.95-1.21,20.36-2.31,30.83-1.07,10.28-1.61,20.87-1.61,31.47,0,5.27-1.04,10.93-3.1,16.84-2.06,5.96-4.97,11.14-8.64,15.39-3.98,4.59-8.9,6.91-14.64,6.91Z"/>
        <path class="cls-2" d="M175.39,5c10.02,0,19.01,2.73,26.97,8.2,7.96,5.45,14.23,12.44,18.82,20.95,4.59,8.5,6.88,17.44,6.88,26.82v3.27c0,1.1-.11,2.19-.33,3.26,0,8.08-2.08,14.9-6.22,20.47-4.15,5.55-10.15,9.2-17.99,10.96-7.86,1.08-12.67,3.7-14.42,7.84-1.74,4.15-2.61,9.06-2.61,14.73,0,6.98-.6,13.91-1.8,20.77-1.2,6.87-1.8,12.48-1.8,16.85,0,3.71,1.41,7.47,4.25,11.29,2.83,3.81,5.62,7.25,8.35,10.3,2.73,3.06,4.1,5.68,4.1,7.87,0,3.71-3.6,7.2-10.8,10.45-6.11,2.85-10.2,6.57-12.27,11.15-2.08,4.57-3.33,9.7-3.77,15.36-.44,10.04-1.21,20.29-2.3,30.77-1.08,10.46-1.62,21.04-1.62,31.73,0,5.01-.99,10.35-2.96,16.02-1.96,5.68-4.68,10.54-8.17,14.57-3.5,4.03-7.75,6.05-12.75,6.05s-9.86-1.31-14.55-3.92c-4.69-2.62-7.03-6.44-7.03-11.46,0-2.18.32-4.36.96-6.53,3.05-9.6,4.63-19.58,4.73-29.96.12-10.36.83-20.44,2.15-30.26.22-1.08.38-2.22.48-3.42.12-1.21.18-2.36.18-3.44,0-5.02-1.26-8.68-3.77-10.96-2.51-2.29-6.94-3.44-13.26-3.44-5.45-.44-10.41-2.67-14.88-6.71-4.47-4.04-6.71-8.03-6.71-11.94,0-1.75.93-4.1,2.78-7.03,1.85-2.95,4.31-4.86,7.36-5.74,9.16-3.05,16.3-7.19,21.43-12.42,5.13-5.23,8.89-11.16,11.29-17.82,2.39-6.66,3.97-13.75,4.73-21.28.77-7.52,1.48-15.1,2.13-22.75,1.1-13.31,2.13-26.61,3.11-39.9.98-13.31,2.13-26.61,3.44-39.93,1.96-20.51,10.57-30.77,25.86-30.77M175.39,0c-12.53,0-28.05,6.12-30.83,35.29-1.33,13.43-2.49,26.9-3.45,40.03-.99,13.43-2.04,26.84-3.11,39.86-.65,7.66-1.36,15.29-2.12,22.65-.72,7.09-2.22,13.85-4.46,20.1-2.14,5.94-5.56,11.33-10.15,16-4.53,4.62-11.04,8.37-19.35,11.15-4.21,1.24-7.61,3.88-10.11,7.86-2.42,3.82-3.55,6.91-3.55,9.69,0,5.37,2.81,10.64,8.35,15.65,5.29,4.77,11.29,7.45,17.83,7.98l.4.02c6.81,0,9.19,1.49,9.89,2.14,1.77,1.6,2.14,4.83,2.14,7.26,0,.9-.05,1.9-.15,2.97-.09,1.06-.23,2.02-.4,2.9l-.06.33c-1.34,9.99-2.07,20.37-2.19,30.87-.1,9.83-1.61,19.42-4.5,28.5l-.03.09c-.78,2.61-1.17,5.29-1.17,7.95,0,6.85,3.32,12.32,9.6,15.83,5.43,3.02,11.14,4.56,16.99,4.56,6.5,0,12.06-2.62,16.53-7.77,3.89-4.49,6.96-9.95,9.12-16.22,2.14-6.16,3.23-12.1,3.23-17.65,0-10.51.54-21.01,1.59-31.21,1.1-10.49,1.88-20.91,2.32-30.98.4-5.03,1.52-9.6,3.33-13.6,1.56-3.45,4.85-6.36,9.8-8.68,3.43-1.55,13.72-6.22,13.72-15,0-3.49-1.76-7.15-5.37-11.2-2.62-2.92-5.33-6.27-8.07-9.95-2.17-2.91-3.26-5.7-3.26-8.3,0-4.07.58-9.45,1.72-15.99,1.24-7.14,1.87-14.42,1.87-21.63,0-4.98.75-9.28,2.22-12.79.98-2.31,4.7-4.03,10.49-4.83l.41-.07c9.01-2.01,16.04-6.33,20.91-12.84,4.71-6.32,7.13-14.04,7.22-22.98.22-1.24.33-2.49.33-3.75v-3.27c0-10.17-2.52-19.99-7.48-29.19-4.95-9.19-11.82-16.82-20.4-22.7-8.78-6.02-18.8-9.07-29.8-9.07h0Z"/>
      </g>
      <g>
        <path class="cls-2" d="M465.59,247.67c-5.18,0-10.53-2.41-15.88-7.16-5.02-4.47-10.04-10.04-14.92-16.57-4.81-6.46-9.45-12.93-13.79-19.23-4.29-6.22-8.26-11.56-11.81-15.87-4.04-4.91-6.36-5.64-7.38-5.64-1.22,0-4.11.79-9.76,6.06-4.7,4.38-9.98,9.83-15.71,16.19-5.56,6.18-11.24,12.41-16.87,18.52-3.94,4.42-8.53,6.68-13.6,6.68-3.55,0-7.88-1.5-13.22-4.59-4.92-2.84-10.27-6.36-15.9-10.44-5.64-4.09-11.13-8.24-16.3-12.34-5.23-4.15-9.64-7.64-13.23-10.47-3.66-2.88-4.98-3.55-5.36-3.71-1.22.04-2.74.54-4.1,3.34-1.43,2.96-2.69,6.7-3.74,11.11-1.1,4.64-2.5,9.35-4.15,14-1.75,4.88-4.24,9.07-7.41,12.48-3.44,3.67-8.18,5.53-14.1,5.53-7.22,0-12.89-2.07-16.85-6.15-3.75-3.86-6.54-8.65-8.28-14.23-1.68-5.38-2.81-10.78-3.36-16.04-.53-5.02-1.12-9.06-1.75-12.01l-.04-.79c1.12-10.52,3.42-19.19,6.82-25.75,3.65-7.05,10.67-11.35,20.85-12.77,3.94-.4,7.29-1.71,10.05-3.91,3.18-2.52,6.57-4.91,10.07-7.1,4.41-3.73,8.18-6.49,11.22-8.18,3.32-1.84,6.65-2.77,9.9-2.77,3.03,0,6.24.93,9.54,2.77,3.05,1.69,6.74,4.25,10.98,7.58,3.64,2.73,6.84,6,9.47,9.67,2.37,3.3,5.05,6.25,7.95,8.74,2.6,2.23,5.92,3.32,10.16,3.32,3.62,0,6.61-.91,9.14-2.78,2.79-2.07,5.46-4.59,7.94-7.48,2.71-3.17,5.59-5.93,8.55-8.2,9.06-7.07,17.72-12.36,25.74-15.71,8.13-3.39,15.5-5.1,21.91-5.1,9.58,0,18.09,3.6,25.31,10.71,6.94,6.82,13.82,17.23,20.46,30.93,3.6,7.43,8.12,14.42,13.41,20.77,5.48,6.57,10.43,13.01,14.7,19.15,4.53,6.51,6.83,13.37,6.83,20.41,0,3.85-1.02,7.9-3.03,12.05-2,4.12-4.76,7.65-8.19,10.5-3.6,2.99-7.71,4.5-12.23,4.5Z"/>
        <path class="cls-2" d="M408.33,121.16c8.94,0,16.79,3.33,23.56,9.99,6.76,6.65,13.42,16.73,19.96,30.24,3.71,7.64,8.29,14.74,13.74,21.28,5.46,6.55,10.32,12.87,14.57,18.98,4.25,6.11,6.38,12.44,6.38,18.98,0,3.5-.93,7.14-2.78,10.96-1.86,3.81-4.37,7.03-7.54,9.66-3.16,2.62-6.7,3.92-10.63,3.92-4.57,0-9.31-2.17-14.22-6.53-4.91-4.37-9.77-9.76-14.57-16.19-4.79-6.44-9.37-12.82-13.74-19.15-4.36-6.32-8.34-11.67-11.94-16.04-3.59-4.37-6.7-6.55-9.31-6.55-2.84,0-6.66,2.25-11.46,6.73-4.79,4.47-10.08,9.92-15.86,16.35-5.79,6.43-11.41,12.59-16.85,18.49-3.5,3.92-7.42,5.87-11.77,5.87-3.07,0-7.06-1.41-11.96-4.25-4.9-2.83-10.12-6.27-15.69-10.3-5.57-4.03-10.97-8.12-16.22-12.27-5.23-4.15-9.64-7.64-13.24-10.47-3.59-2.83-5.83-4.25-6.71-4.25-2.84,0-5.02,1.59-6.55,4.76-1.52,3.16-2.83,7.03-3.92,11.61-1.08,4.57-2.44,9.15-4.08,13.74-1.64,4.57-3.93,8.45-6.88,11.61-2.95,3.16-7.05,4.73-12.27,4.73-6.55,0-11.56-1.8-15.05-5.39-3.49-3.59-6.06-8-7.69-13.24-1.64-5.24-2.73-10.43-3.26-15.56-.54-5.13-1.14-9.21-1.8-12.27,1.1-10.26,3.28-18.54,6.55-24.87,3.27-6.32,9.6-10.13,18.98-11.44,4.35-.44,8.11-1.91,11.26-4.43,3.17-2.51,6.5-4.85,9.99-7.03,4.37-3.71,8.02-6.38,10.96-8.02,2.95-1.63,5.84-2.45,8.68-2.45,2.61,0,5.39.82,8.33,2.45,2.95,1.64,6.5,4.09,10.65,7.36,3.49,2.62,6.49,5.67,8.98,9.16,2.51,3.5,5.29,6.55,8.35,9.18,3.05,2.62,6.98,3.92,11.79,3.92,4.13,0,7.68-1.08,10.63-3.27,2.95-2.19,5.73-4.81,8.35-7.87,2.61-3.05,5.34-5.66,8.17-7.84,8.94-6.98,17.33-12.11,25.18-15.38,7.86-3.27,14.84-4.91,20.95-4.91M408.33,116.16c-6.74,0-14.43,1.78-22.87,5.29-8.22,3.43-17.08,8.84-26.33,16.06-3.07,2.36-6.07,5.24-8.89,8.53-2.36,2.75-4.89,5.14-7.53,7.11-2.07,1.53-4.58,2.28-7.64,2.28-3.61,0-6.4-.89-8.53-2.72-2.74-2.36-5.28-5.16-7.54-8.3-2.76-3.86-6.13-7.3-10-10.21-4.38-3.45-8.07-5.99-11.27-7.77-3.68-2.05-7.3-3.08-10.76-3.08-3.68,0-7.41,1.04-11.1,3.08-3.2,1.79-6.96,4.52-11.49,8.35-3.53,2.22-6.94,4.62-10.14,7.16-2.42,1.93-5.25,3.03-8.66,3.37l-.19.02c-11.04,1.53-18.68,6.28-22.73,14.09-3.54,6.84-5.93,15.8-7.08,26.64l.08,1.58c.61,2.86,1.19,6.81,1.71,11.75.57,5.42,1.73,10.98,3.46,16.52,1.86,5.96,4.85,11.08,8.88,15.23,4.45,4.58,10.72,6.9,18.64,6.9,6.64,0,12-2.13,15.92-6.32,3.41-3.66,6.08-8.15,7.94-13.34,1.69-4.74,3.11-9.54,4.23-14.27,1.01-4.23,2.21-7.79,3.56-10.59.57-1.17,1.05-1.63,1.43-1.81.64.39,1.92,1.24,4.23,3.06,3.59,2.83,8,6.32,13.22,10.47,5.2,4.12,10.72,8.29,16.39,12.4,5.7,4.13,11.13,7.69,16.12,10.58,5.73,3.31,10.46,4.92,14.47,4.92,5.8,0,11.01-2.53,15.47-7.51,5.63-6.1,11.31-12.33,16.87-18.51,5.68-6.31,10.91-11.7,15.56-16.03,5.71-5.32,7.96-5.38,8.05-5.38,0,0,1.71.19,5.45,4.73,3.51,4.26,7.44,9.54,11.69,15.7,4.37,6.33,9.02,12.82,13.85,19.3,4.98,6.67,10.11,12.37,15.26,16.94,5.83,5.17,11.73,7.79,17.54,7.79,5.11,0,9.76-1.71,13.82-5.07,3.71-3.08,6.68-6.89,8.84-11.32,2.18-4.49,3.29-8.92,3.29-13.15,0-7.55-2.45-14.9-7.27-21.83-4.31-6.19-9.31-12.69-14.84-19.32-5.16-6.19-9.56-13.01-13.08-20.26-6.76-13.96-13.81-24.6-20.95-31.62-7.7-7.58-16.81-11.43-27.06-11.43h0Z"/>
      </g>
    </g>
    <g>
      <path class="cls-1" d="M727.4,265.2c-8.64-24.58-18.68-48.59-29.45-72.3-3.98-8.77-7.91-17.58-11.58-26.48-2.64-6.4-4.77-13.01-5.71-19.93-.39-2.85-.47-5.76-1.02-8.57-1.7-8.79-10.75-15.1-18.65-14.07-7.68,1-12.83,4.96-15.52,12.16-1.33,3.56-.93,7.24-.71,10.93.74,4.06,1.37,8.15,2.25,12.18,2.61,11.88,7.07,23.12,12.04,34.17,5.3,11.79,10.78,23.51,15.93,35.36,7.75,17.84,14.67,36,21.03,54.38,6.02,17.4,11.32,35.01,16.17,52.77,1.87,6.85,7.66,11.81,14.97,12.78,7.54,1,14.27-3.25,17.35-8.48,2.69-4.57,2.94-9.53,1.6-14.54-5.44-20.37-11.72-40.47-18.71-60.36Z"/>
      <path class="cls-1" d="M917.44,337.35c19.08-16.22,37.94-32.69,55.63-50.45,10.29-10.33,20.07-21.11,29.05-32.61,2.83-3.63,4.08-7.79,3.66-13.3-.13-2.14-1.08-4.95-2.72-7.46-6.5-9.94-20.85-10.77-28.53-1.7-.97,1.15-1.87,2.35-2.82,3.51-11.42,13.94-23.88,26.9-36.97,39.27-16.42,15.51-33.67,30.08-50.86,44.71-10.39,8.84-20.79,17.68-31.17,26.53-4.6,3.93-6.99,8.88-6.61,14.99.7,11.27,11.82,18.91,22.92,15.86,2.92-.8,5.18-2.61,7.41-4.5,13.67-11.62,27.35-23.23,41.02-34.85Z"/>
      <path class="cls-1" d="M1014.4,386.7c-4.22-1.53-8.58-2.8-12.98-3.67-8.71-1.72-17.58-1.72-26.43-1.7-7.38.01-14.75.14-22.13.2-8,.06-16.01.1-24.01.15-6.5.04-13,.07-19.51.13-6.13.06-12.25.15-18.07.22-1.39.18-2.5.21-3.54.49-8.25,2.21-13.92,10.41-13.02,18.73.99,9.12,7.84,15.86,16.78,16.03,8.92.18,17.84-.03,26.76-.1,8.79-.07,17.59-.22,26.38-.29,11.71-.08,23.43-.13,35.14-.17,7.33-.03,14.58.6,21.62,2.85,3.37,1.08,6.86,1.32,10.25.37,6.93-1.94,11.08-6.68,12.8-13.58,1.96-7.85-2.6-16.96-10.06-19.66Z"/>
      <path class="cls-1" d="M850.48,248.52c-.04-8.73-5.74-15.71-14.28-17.51-8.11-1.71-16.67,2.82-19.76,10.52-2.08,5.19-4.14,10.39-6.1,15.62-3.74,10-7.47,20-11.08,30.04-3.26,9.06-6.31,18.2-9.53,27.27-1.06,3-2.08,5.96-2.14,9.2-.17,9.11,8.04,18.73,19.23,17.44,7.49-.59,12.92-4.86,15.31-11.97,1.5-4.46,2.95-8.95,4.57-13.37,7.25-19.68,14.55-39.34,21.84-59.01.99-2.67,1.93-5.34,1.92-8.23Z"/>
    </g>
  </g>
</svg>