<?xml version="1.0" encoding="UTF-8"?>
<svg xmlns="http://www.w3.org/2000/svg" version="1.1" viewBox="0 0 1200 1200">
  <defs>
    <style>
      .cls-1 {
        fill: #f2f068;
      }

      .cls-2 {
        fill: #fff;
      }

      .cls-3 {
        fill: #f26968;
      }
    </style>
  </defs>
  <!-- Generator: Adobe Illustrator 28.6.0, SVG Export Plug-In . SVG Version: 1.2.0 Build 709)  -->
  <g>
    <g id="Capa_1">
      <rect class="cls-3" x="-120" y="-120" width="1440" height="1440"/>
      <g>
        <path class="cls-1" d="M247.7,627c1.1-9.6,4.2-18.6,9.2-26.9,5-8.3,11-15.2,18-20.5,7-5.4,14.1-8,21.1-8s9.3,2,14.7,6.1c5.4,4.1,10.5,9.2,15.5,15.5,5,6.3,9.1,12.7,12.2,19.1,3.1,6.5,4.7,11.9,4.7,16.3-1.5,7.8-5.1,15.1-10.8,21.9-5.7,6.8-12.7,12.3-20.8,16.4-8.1,4.1-16.4,6.1-25,6.1-13.7,0-23.6-4.3-29.6-13-6.1-8.7-9.2-19.7-9.2-33Z"/>
        <g>
          <path class="cls-2" d="M206.8,791.5c-14.8,0-29.6,0-44.3-.3-14.8-.2-29.6-.3-44.3-.3s-19.9-2.2-25.2-6.7-8.7-9.6-10-15.5c-1.3-5.9-1.9-10.7-1.9-14.4.4-25.9.7-50.5.8-73.7.2-23.3.3-46.9.3-71v-77.6c-3.3-11.8-8.6-20.5-15.8-26-7.2-5.5-14.7-8.3-22.4-8.3s-15.9,3.1-23.3,9.4c-7.4,6.3-12.6,15.5-15.5,27.7,0,32.1-.2,61.9-.6,89.3-.4,27.3-.6,54.8-.8,82.3-.2,27.5-.3,57.4-.3,89.5-2.2,8.1-3.3,15.7-3.3,22.7,0,14,4.2,24.5,12.5,31.3,8.3,6.8,19.3,11.3,33,13.3,13.7,2,28.1,3.4,43.2,4.2,24.4,1.1,48.8,1.7,73.2,1.7s14,0,21-.3c7-.2,14.1-.3,21.1-.3,12.2-3,21.4-8.1,27.7-15.5,6.3-7.4,9.4-15.1,9.4-23.3s-2.8-15.3-8.3-22.5c-5.6-7.2-14.2-12.5-26.1-15.8Z"/>
          <path class="cls-2" d="M319.6,787.3c-7.2-6.8-15.4-10.6-24.7-11.4-10.7,0-19.9,2.4-27.4,7.2-7.6,4.8-11.4,14.4-11.4,28.8s2.2,22.6,6.7,33.5c4.4,10.9,10.3,19.8,17.7,26.6,7.4,6.8,15.3,10.2,23.8,10.2s19.9-4.6,27.4-13.8c7.6-9.2,11.4-18.5,11.4-27.7s-2.1-19.2-6.4-28.8c-4.2-9.6-10-17.8-17.2-24.7Z"/>
          <path class="cls-2" d="M453.6,681.1c-3.7,0-7.4.5-11.1,1.4-3.7.9-7.4,2.3-11.1,4.2-20.7,9.6-37.1,24.4-49.3,44.4-12.2,20-18.3,41.4-18.3,64.3s3.9,34.7,11.7,49.9c3.7,7,5.5,13.1,5.5,18.3s-1.1,8-3.3,13c-2.2,5-4.5,10.1-6.9,15.2-2.4,5.2-3.6,9.8-3.6,13.9,0,8.5,3.3,15.6,10,21.3,6.7,5.7,15.7,9.2,27.2,10.3,8.9,0,19-2.4,30.5-7.2,11.5-4.8,21.5-12,30.2-21.6,8.7-9.6,13-21.6,13-36s-1.4-13.2-4.2-19.7c-2.8-6.5-6.7-12.6-11.9-18.6-8.5-12.2-15-22-19.4-29.4-4.4-7.4-6.7-14-6.7-20s2.9-12.6,8.6-19.1c5.7-6.5,14.3-14.3,25.8-23.6,5.9-4.8,10.4-9.3,13.6-13.6,3.1-4.3,4.7-9.2,4.7-14.7,0-8.5-3.2-16.1-9.7-22.7-6.5-6.7-14.9-10-25.2-10Z"/>
          <path class="cls-2" d="M800.5,712.7c-8.1-7-16.5-12.7-25.2-16.9-8.7-4.2-17.3-7.7-25.8-10.3-12.2-4.1-20.9-7.4-26-10-5.2-2.6-8.3-6.8-9.4-12.5-1.1-5.7-1.8-15.1-2.2-28-.4-15.9-1.9-31.5-4.7-46.8-2.8-15.3-9.1-29.9-19.1-43.5-4.8-6.7-10.2-13-16.1-19.1-5.9-6.1-13.3-9.2-22.2-9.2s-17.4,2.2-22.2,6.7c-4.8,4.4-7.8,9.8-9.1,16.1-1.3,6.3-1.9,12.2-1.9,17.7,0,14.8,1.3,29.9,3.9,45.5,2.6,15.5,3.9,30.9,3.9,46s-3.1,18.3-9.2,22.7c-6.1,4.4-13.9,7.1-23.3,8-9.4.9-19.6,1.5-30.5,1.7-10.9.2-21.1,1.2-30.5,3-9.4,1.8-17.2,5.9-23.3,12.2-6.1,6.3-9.2,16.1-9.2,29.4s3.2,17.1,9.7,23.6c6.5,6.5,14.2,11.4,23.3,14.7,9.1,3.3,17.6,5,25.8,5s19.5-1.1,29.6-3.3c10.2-2.2,19.5-3.3,28-3.3s14,2.5,16.3,7.5c2.4,5,3.6,13.8,3.6,26.3s-.4,13.1-1.1,19.4c-.7,6.3-1.1,12.6-1.1,18.8,0,12.6,4.4,21.6,13.3,27.2,8.9,5.5,17.9,8.3,27.2,8.3s16.5-3.4,21.9-10.3c5.4-6.8,9.3-15.1,11.9-24.9,2.6-9.8,3.9-18.9,3.9-27.5s-.4-8.4-1.1-13c-.7-4.6-1.1-9.2-1.1-13.6,0-16.3,9.2-26,27.7-29.4,25.1-4.4,46.6-17.2,64.3-38.3Z"/>
          <path class="cls-2" d="M999.8,806.2c-3.3-3.9-7.2-7.3-11.7-10.3-8.5-5.5-14.3-12.3-17.5-20.2-3.1-8-5.6-16.6-7.5-25.8-2.6-12.9-7.5-22.6-14.7-29.1-7.2-6.5-15.1-9.7-23.6-9.7s-22.9,5.4-34.4,16.1c-6.3,5.9-12.8,9.9-19.7,11.9-6.8,2-14,4-21.3,5.8-25.1,5.6-45.8,16.6-62.1,33-16.3,16.4-29.2,35.9-38.8,58.5-3.3,8.1-5,16.1-5,23.8,0,12.9,4.7,23.8,14.1,32.7,9.4,8.9,22.5,13.9,39.1,15,3,.7,5.4,1.1,7.2,1.1,7,0,14.8-2.9,23.3-8.6,8.5-5.7,16.8-12.9,25-21.6,8.1-8.7,14.6-17.3,19.4-25.8,6.7-11.8,14.4-17.7,23.3-17.7s12.2,2.6,18.8,7.8c6.3,4.8,12.8,8,19.4,9.7,6.7,1.7,13.5,2.5,20.5,2.5s13.9-1,21.9-3c8-2,14.8-5.7,20.5-10.8,5.7-5.2,8.6-12.4,8.6-21.6s-1.7-9.7-5-13.6Z"/>
          <g>
            <path class="cls-2" d="M164.7,641.3c-6.3,0-12.5-1.7-18.3-4.9-6.3-3.5-9.6-8.8-9.6-15.7s.4-5.6,1.2-8.4c3.5-11,5.3-22.7,5.5-34.6.1-12.2,1-24.3,2.5-35.9v-.2c.3-1.2.4-2.4.6-3.7.1-1.4.2-2.7.2-3.8,0-5.1-1.2-8.9-3.6-11-2.5-2.3-7.2-3.4-13.9-3.4h-.2c-6.9-.6-13.3-3.4-19-8.5-5.8-5.2-8.7-10.6-8.7-15.9s1.2-5.7,3.7-9.6c2.5-4,5.9-6.6,10-7.8,10.3-3.4,18.5-8.1,24.2-14,5.7-5.9,10-12.6,12.7-20.1,2.7-7.6,4.6-15.8,5.4-24.4.9-8.7,1.7-17.7,2.5-26.7,1.3-15.3,2.5-31.1,3.7-46.9,1.1-15.4,2.5-31.3,4.1-47,2.4-25.5,13.5-38.5,32.9-38.5s23.4,3.4,33.2,10.1c9.6,6.6,17.4,15.2,22.9,25.5,5.6,10.3,8.4,21.3,8.4,32.7v3.8c0,1.4-.1,2.7-.4,4.1,0,9.9-2.7,18.4-7.8,25.3-5.2,7-12.8,11.7-22.6,13.8h-.2c-8.3,1.2-13.3,3.8-15,7.8-1.9,4.5-2.9,10-2.9,16.4s-.7,16.7-2.2,24.9c-1.4,7.9-2.1,14.4-2.1,19.4s1.5,7.8,4.5,11.8c3.3,4.4,6.5,8.4,9.7,11.9,3.7,4.1,5.5,7.7,5.5,10.9,0,5.5-4.6,10.3-14.2,14.6-6.6,3.1-11,7.1-13.2,11.9-2.3,5.1-3.7,10.9-4.2,17.2-.5,11.7-1.4,24-2.7,36.3-1.3,12.1-1.9,24.6-1.9,37.1s-1.2,12.8-3.6,19.7c-2.4,7-5.8,13-10.1,18-4.6,5.3-10.3,8-16.9,8Z"/>
            <path class="cls-2" d="M200.5,262.7c11.8,0,22.4,3.2,31.7,9.6,9.4,6.4,16.7,14.6,22.1,24.6,5.4,10,8.1,20.5,8.1,31.6v3.8c0,1.3-.1,2.6-.4,3.8,0,9.5-2.4,17.5-7.3,24.1-4.9,6.5-11.9,10.8-21.2,12.9-9.2,1.3-14.9,4.4-17,9.2-2,4.9-3.1,10.7-3.1,17.3s-.7,16.4-2.1,24.4c-1.4,8.1-2.1,14.7-2.1,19.8s1.7,8.8,5,13.3c3.3,4.5,6.6,8.5,9.8,12.1,3.2,3.6,4.8,6.7,4.8,9.3,0,4.4-4.2,8.5-12.7,12.3-7.2,3.4-12,7.7-14.4,13.1-2.4,5.4-3.9,11.4-4.4,18.1-.5,11.8-1.4,23.9-2.7,36.2-1.3,12.3-1.9,24.8-1.9,37.3s-1.2,12.2-3.5,18.8c-2.3,6.7-5.5,12.4-9.6,17.1-4.1,4.7-9.1,7.1-15,7.1s-11.6-1.5-17.1-4.6c-5.5-3.1-8.3-7.6-8.3-13.5s.4-5.1,1.1-7.7c3.6-11.3,5.4-23,5.6-35.2.1-12.2,1-24.1,2.5-35.6.3-1.3.4-2.6.6-4,.1-1.4.2-2.8.2-4,0-5.9-1.5-10.2-4.4-12.9-3-2.7-8.2-4-15.6-4-6.4-.5-12.2-3.1-17.5-7.9-5.3-4.8-7.9-9.4-7.9-14.1s1.1-4.8,3.3-8.3c2.2-3.5,5.1-5.7,8.7-6.8,10.8-3.6,19.2-8.5,25.2-14.6,6-6.1,10.5-13.1,13.3-21,2.8-7.8,4.7-16.2,5.6-25,.9-8.8,1.7-17.8,2.5-26.8,1.3-15.7,2.5-31.3,3.7-46.9,1.1-15.7,2.5-31.3,4-47,2.3-24.1,12.4-36.2,30.4-36.2M200.5,257.7c-14.4,0-32.2,7.1-35.4,40.7-1.6,15.8-2.9,31.6-4.1,47.1-1.2,15.8-2.4,31.6-3.7,46.9-.8,9-1.6,18-2.5,26.7-.9,8.4-2.6,16.4-5.3,23.9-2.6,7.1-6.7,13.6-12.1,19.2-5.4,5.5-13.2,10-23.1,13.3-4.7,1.4-8.6,4.4-11.4,8.9-2.8,4.4-4,7.8-4,10.9,0,6.1,3.2,12,9.5,17.8,6.1,5.5,13,8.6,20.5,9.2h.4c8,0,11.1,1.7,12.2,2.8,1.9,1.7,2.8,4.8,2.8,9.2s0,2.3-.2,3.6c-.1,1.3-.3,2.4-.5,3.5v.3c-1.6,11.7-2.5,23.9-2.6,36.2-.1,11.7-1.9,23-5.3,33.8h0c-.9,3.1-1.3,6.1-1.3,9.2,0,7.7,3.7,13.9,10.8,17.8,6.3,3.5,12.8,5.2,19.6,5.2s13.7-3,18.8-8.8c4.5-5.2,8.1-11.5,10.6-18.8,2.5-7.2,3.8-14.1,3.8-20.5,0-12.4.6-24.8,1.9-36.8,1.3-12.3,2.2-24.6,2.7-36.4.5-6,1.8-11.5,4-16.3,1.9-4.3,5.9-7.8,12-10.6,3.9-1.8,15.6-7.1,15.6-16.8s-2-8-6.1-12.6c-3.1-3.5-6.3-7.4-9.5-11.8-2.7-3.6-4-7-4-10.3,0-4.8.7-11.2,2-19,1.5-8.3,2.2-16.9,2.2-25.3s.9-11.2,2.7-15.4c1.6-3.9,8-5.5,13-6.2h.4c10.4-2.4,18.5-7.4,24.1-14.9,5.4-7.3,8.2-16.2,8.3-26.6.3-1.4.4-2.9.4-4.3v-3.8c0-11.8-2.9-23.2-8.7-33.9-5.8-10.7-13.7-19.6-23.7-26.4-10.2-7-21.8-10.5-34.6-10.5h0Z"/>
          </g>
          <g>
            <path class="cls-2" d="M541.9,547.8c-6,0-12.2-2.8-18.4-8.3-5.9-5.2-11.8-11.8-17.5-19.4-5.6-7.6-11.1-15.2-16.2-22.6-5.1-7.3-9.7-13.6-13.9-18.7-4.9-5.9-7.7-6.8-9-6.8-1.8,0-5.4,1.3-11.8,7.2-5.5,5.2-11.8,11.6-18.5,19.1-6.6,7.3-13.2,14.6-19.8,21.8-4.6,5.1-9.8,7.7-15.7,7.7s-9.1-1.7-15.3-5.3c-5.8-3.3-12.1-7.5-18.7-12.3-6.6-4.8-13.1-9.7-19.2-14.5-6.2-4.9-11.3-9-15.6-12.3-4.6-3.6-6.1-4.3-6.5-4.5-1.5,0-3.5.6-5.3,4.2-1.7,3.5-3.2,7.9-4.4,13.2-1.3,5.4-2.9,11-4.9,16.4-2,5.7-4.9,10.6-8.6,14.5-4,4.2-9.4,6.4-16.3,6.4s-14.9-2.4-19.5-7.1c-4.4-4.5-7.6-10.1-9.6-16.6-2-6.3-3.3-12.6-3.9-18.8-.6-5.9-1.3-10.7-2.1-14.2v-.8c1.3-12.3,4-22.5,7.9-30.1,4.2-8.2,12.4-13.1,24.2-14.8,4.7-.5,8.7-2,12-4.7,3.7-3,7.7-5.8,11.8-8.3,5.2-4.4,9.6-7.6,13.2-9.6,3.8-2.1,7.7-3.2,11.4-3.2s7.2,1.1,11,3.2c3.6,2,7.9,5,12.9,8.9,4.3,3.2,8,7,11.1,11.3,2.8,3.9,6,7.4,9.4,10.4,3.1,2.7,7.1,4,12.2,4s8-1.1,11-3.4c3.3-2.5,6.5-5.4,9.4-8.9,3.2-3.7,6.5-6.9,10-9.6,10.6-8.3,20.8-14.5,30.2-18.4,9.5-4,18.1-6,25.6-6,11.1,0,21.1,4.2,29.5,12.5,8.1,8,16.2,20.2,24,36.3,4.3,8.8,9.6,17,15.8,24.5,6.4,7.7,12.3,15.3,17.3,22.5,5.3,7.6,8,15.6,8,23.8s-1.2,9.2-3.5,14c-2.3,4.8-5.5,8.9-9.5,12.2-4.2,3.4-8.9,5.2-14.1,5.2Z"/>
            <path class="cls-2" d="M474.5,399.4c10.5,0,19.8,3.9,27.7,11.8,8,7.8,15.8,19.7,23.5,35.6,4.4,9,9.8,17.3,16.2,25,6.4,7.7,12.1,15.1,17.1,22.3,5,7.2,7.5,14.6,7.5,22.3s-1.1,8.4-3.3,12.9c-2.2,4.5-5.1,8.3-8.9,11.4-3.7,3.1-7.9,4.6-12.5,4.6s-11-2.6-16.7-7.7c-5.8-5.1-11.5-11.5-17.1-19.1-5.6-7.6-11-15.1-16.2-22.5-5.1-7.4-9.8-13.7-14.1-18.9-4.2-5.1-7.9-7.7-11-7.7s-7.8,2.6-13.5,7.9c-5.6,5.3-11.9,11.7-18.7,19.2-6.8,7.6-13.4,14.8-19.8,21.8-4.1,4.6-8.7,6.9-13.8,6.9s-8.3-1.7-14.1-5c-5.8-3.3-11.9-7.4-18.5-12.1-6.5-4.7-12.9-9.6-19.1-14.4-6.2-4.9-11.3-9-15.6-12.3-4.2-3.3-6.9-5-7.9-5-3.3,0-5.9,1.9-7.7,5.6-1.8,3.7-3.3,8.3-4.6,13.7-1.3,5.4-2.9,10.8-4.8,16.2-1.9,5.4-4.6,9.9-8.1,13.7-3.5,3.7-8.3,5.6-14.4,5.6s-13.6-2.1-17.7-6.3c-4.1-4.2-7.1-9.4-9-15.6-1.9-6.2-3.2-12.3-3.8-18.3-.6-6-1.3-10.8-2.1-14.4,1.3-12.1,3.9-21.8,7.7-29.3,3.8-7.4,11.3-11.9,22.3-13.5,5.1-.5,9.5-2.2,13.3-5.2,3.7-3,7.6-5.7,11.8-8.3,5.1-4.4,9.4-7.5,12.9-9.4,3.5-1.9,6.9-2.9,10.2-2.9s6.3,1,9.8,2.9c3.5,1.9,7.6,4.8,12.5,8.7,4.1,3.1,7.6,6.7,10.6,10.8,3,4.1,6.2,7.7,9.8,10.8,3.6,3.1,8.2,4.6,13.9,4.6s9-1.3,12.5-3.8c3.5-2.6,6.7-5.7,9.8-9.3,3.1-3.6,6.3-6.7,9.6-9.2,10.5-8.2,20.4-14.2,29.6-18.1,9.2-3.8,17.5-5.8,24.6-5.8M474.5,394.4c-7.8,0-16.8,2.1-26.6,6.2-9.6,4-20,10.3-30.8,18.8-3.6,2.7-7.1,6.1-10.3,9.9-2.8,3.3-5.8,6.1-9,8.5-2.6,1.9-5.7,2.9-9.5,2.9s-7.9-1.1-10.6-3.4c-3.3-2.8-6.3-6.2-9-9.9-3.2-4.5-7.1-8.5-11.6-11.8-5.1-4-9.4-7-13.1-9.1-4.2-2.3-8.3-3.5-12.2-3.5s-8.4,1.2-12.6,3.5c-3.7,2.1-8.1,5.3-13.4,9.8-4.1,2.6-8.1,5.4-11.9,8.4-3,2.4-6.5,3.7-10.6,4.2h-.2c-12.7,1.8-21.5,7.2-26.1,16.1-4.1,8-6.9,18.4-8.2,31v1.6c.8,3.4,1.5,8.1,2.1,13.9.7,6.3,2,12.8,4,19.3,2.1,6.9,5.6,12.8,10.2,17.6,5.1,5.2,12.2,7.9,21.3,7.9s13.6-2.4,18.1-7.2c3.9-4.2,7-9.4,9.2-15.4,2-5.5,3.6-11.2,5-16.7,1.2-5,2.6-9.3,4.3-12.6,1-2,1.9-2.6,2.6-2.7.7.4,2.2,1.4,5.4,3.9,4.2,3.3,9.4,7.4,15.6,12.3,6.1,4.8,12.6,9.7,19.3,14.6,6.7,4.8,13,9,18.9,12.4,6.6,3.8,12,5.7,16.6,5.7,6.6,0,12.5-2.9,17.5-8.5,6.6-7.2,13.3-14.5,19.8-21.8,6.7-7.4,12.9-13.8,18.4-18.9,6.7-6.3,9.6-6.6,10.1-6.6s2.3,0,7.1,5.9c4.1,5,8.8,11.3,13.8,18.5,5.1,7.4,10.6,15.1,16.3,22.7,5.8,7.8,11.8,14.5,17.8,19.8,6.7,5.9,13.4,8.9,20.1,8.9s11.1-1.9,15.7-5.8c4.3-3.5,7.7-7.9,10.2-13,2.5-5.2,3.8-10.2,3.8-15.1,0-8.7-2.8-17.2-8.4-25.2-5.1-7.3-10.9-14.9-17.4-22.7-6.1-7.3-11.3-15.4-15.5-24-7.9-16.3-16.1-28.8-24.5-37-8.9-8.8-19.4-13.2-31.2-13.2h0Z"/>
          </g>
        </g>
        <g>
          <path class="cls-1" d="M850,568.9c-10.2-28.9-22-57.2-34.6-85.1-4.7-10.3-9.3-20.7-13.6-31.2-3.1-7.5-5.6-15.3-6.7-23.4-.5-3.4-.6-6.8-1.2-10.1-2-10.3-12.7-17.8-21.9-16.6-9,1.2-15.1,5.8-18.3,14.3-1.6,4.2-1.1,8.5-.8,12.9.9,4.8,1.6,9.6,2.7,14.3,3.1,14,8.3,27.2,14.2,40.2,6.2,13.9,12.7,27.7,18.7,41.6,9.1,21,17.3,42.4,24.7,64,7.1,20.5,13.3,41.2,19,62.1,2.2,8.1,9,13.9,17.6,15,8.9,1.2,16.8-3.8,20.4-10,3.2-5.4,3.5-11.2,1.9-17.1-6.4-24-13.8-47.6-22-71Z"/>
          <path class="cls-1" d="M1073.5,653.8c22.5-19.1,44.6-38.5,65.4-59.4,12.1-12.2,23.6-24.8,34.2-38.4,3.3-4.3,4.8-9.2,4.3-15.6-.1-2.5-1.3-5.8-3.2-8.8-7.6-11.7-24.5-12.7-33.6-2-1.1,1.3-2.2,2.8-3.3,4.1-13.4,16.4-28.1,31.6-43.5,46.2-19.3,18.3-39.6,35.4-59.8,52.6-12.2,10.4-24.5,20.8-36.7,31.2-5.4,4.6-8.2,10.4-7.8,17.6.8,13.3,13.9,22.3,27,18.7,3.4-.9,6.1-3.1,8.7-5.3,16.1-13.7,32.2-27.3,48.3-41Z"/>
          <path class="cls-1" d="M1187.6,711.8c-5-1.8-10.1-3.3-15.3-4.3-10.2-2-20.7-2-31.1-2-8.7,0-17.4.2-26,.2-9.4,0-18.8.1-28.3.2-7.7,0-15.3,0-23,.1-7.2,0-14.4.2-21.3.3-1.6.2-2.9.2-4.2.6-9.7,2.6-16.4,12.2-15.3,22,1.2,10.7,9.2,18.7,19.7,18.9,10.5.2,21,0,31.5-.1,10.3,0,20.7-.3,31-.3,13.8,0,27.6-.1,41.3-.2,8.6,0,17.2.7,25.4,3.4,4,1.3,8.1,1.6,12.1.4,8.1-2.3,13-7.9,15.1-16,2.3-9.2-3.1-19.9-11.8-23.1Z"/>
          <path class="cls-1" d="M994.8,549.3c0-10.3-6.8-18.5-16.8-20.6-9.5-2-19.6,3.3-23.2,12.4-2.4,6.1-4.9,12.2-7.2,18.4-4.4,11.8-8.8,23.5-13,35.3-3.8,10.7-7.4,21.4-11.2,32.1-1.2,3.5-2.4,7-2.5,10.8-.2,10.7,9.5,22,22.6,20.5,8.8-.7,15.2-5.7,18-14.1,1.8-5.3,3.5-10.5,5.4-15.7,8.5-23.2,17.1-46.3,25.7-69.4,1.2-3.1,2.3-6.3,2.3-9.7Z"/>
        </g>
      </g>
    </g>
  </g>
</svg>